<svg width="9" height="7" viewBox="0 0 8 5" fill="none" xmlns="http://www.w3.org/2000/svg">
    <path d="M3.53976 0.194049C3.28126 0.452672 3.28126 0.871984 3.53976 1.13061L6.87001 4.46243C7.12851 4.72106 7.54762 4.72106 7.80612 4.46243C8.06462 4.20381 8.06462 3.7845 7.80612 3.52588L4.47587 0.194049C4.21737 -0.0645742 3.79826 -0.0645742 3.53976 0.194049Z" fill="#0066FF"/>
    <path d="M4.47058 0.194049C4.72908 0.452672 4.72908 0.871984 4.47058 1.13061L1.12999 4.47278C0.871489 4.7314 0.452377 4.7314 0.193876 4.47278C-0.0646252 4.21416 -0.0646252 3.79485 0.193876 3.53622L3.53447 0.194049C3.79297 -0.0645742 4.21208 -0.0645742 4.47058 0.194049Z" fill="#0066FF"/>
</svg>
    