<svg width="17" height="19" viewBox="0 0 13 15" fill="none" xmlns="http://www.w3.org/2000/svg">
    <path opacity="0.5" d="M1 3C0.447715 3 0 3.44772 0 4C0 4.55228 0.447715 5 1 5V3ZM12 5C12.5523 5 13 4.55228 13 4C13 3.44772 12.5523 3 12 3V5ZM2.92846 3.6C2.92846 4.15228 3.37618 4.6 3.92846 4.6C4.48075 4.6 4.92846 4.15228 4.92846 3.6H2.92846ZM5.21418 1V0V1ZM7.78561 1V0V1ZM8.07132 3.6C8.07132 4.15228 8.51903 4.6 9.07132 4.6C9.6236 4.6 10.0713 4.15228 10.0713 3.6H8.07132ZM6 7C6 6.44772 5.55228 6 5 6C4.44772 6 4 6.44772 4 7H6ZM4 11C4 11.5523 4.44772 12 5 12C5.55228 12 6 11.5523 6 11H4ZM9 7C9 6.44772 8.55228 6 8 6C7.44772 6 7 6.44772 7 7H9ZM7 11C7 11.5523 7.44772 12 8 12C8.55228 12 9 11.5523 9 11H7ZM1 5H12V3H1V5ZM4.92846 3.6V2.3H2.92846V3.6H4.92846ZM4.92846 2.3C4.92846 2.21689 4.96122 2.13938 5.01604 2.08395L3.59404 0.677572C3.16663 1.10973 2.92846 1.69355 2.92846 2.3H4.92846ZM5.01604 2.08395C5.0705 2.02889 5.14199 2 5.21418 2V0C4.60438 0 4.02182 0.245036 3.59404 0.677572L5.01604 2.08395ZM5.21418 2H7.78561V0H5.21418V2ZM7.78561 2C7.85779 2 7.92929 2.02889 7.98374 2.08395L9.40575 0.677572C8.97796 0.245036 8.3954 0 7.78561 0V2ZM7.98374 2.08395C8.03856 2.13938 8.07132 2.21689 8.07132 2.3H10.0713C10.0713 1.69355 9.83316 1.10973 9.40575 0.677572L7.98374 2.08395ZM8.07132 2.3V3.6H10.0713V2.3H8.07132ZM4 7V11H6V7H4ZM7 7V11H9V7H7ZM10 4V12H12V4H10ZM9 13H4V15H9V13ZM3 12V4H1V12H3ZM4 13C3.44772 13 3 12.5523 3 12H1C1 13.6569 2.34315 15 4 15V13ZM10 12C10 12.5523 9.55228 13 9 13V15C10.6569 15 12 13.6569 12 12H10Z" fill="#FF238D"/>
</svg>
    