<svg width="19" height="19" viewBox="0 0 14 14" fill="none" xmlns="http://www.w3.org/2000/svg">
    <path d="M9.33943 1.62805L8.63232 0.920947L8.63232 0.920948L9.33943 1.62805ZM10.8557 1V0V1ZM13 3.14431H14H13ZM12.3719 4.66057L11.6648 3.95346L11.6648 3.95346L12.3719 4.66057ZM5.16971 11.8628L5.43283 12.8276C5.60073 12.7818 5.75376 12.693 5.87682 12.5699L5.16971 11.8628ZM1 13L0.0352364 12.7369C-0.0591854 13.0831 0.0391427 13.4534 0.292893 13.7071C0.546642 13.9609 0.916904 14.0592 1.26312 13.9648L1 13ZM2.13719 8.8303L1.43009 8.12319C1.30703 8.24625 1.21822 8.39929 1.17243 8.56718L2.13719 8.8303ZM10.0465 2.33516C10.1528 2.2289 10.2789 2.14461 10.4178 2.08711L9.65241 0.239346C9.27093 0.397362 8.9243 0.62897 8.63232 0.920947L10.0465 2.33516ZM10.4178 2.08711C10.5566 2.0296 10.7054 2 10.8557 2V0C10.4428 0 10.0339 0.0813298 9.65241 0.239346L10.4178 2.08711ZM10.8557 2C11.006 2 11.1548 2.0296 11.2936 2.08711L12.059 0.239346C11.6775 0.0813296 11.2686 0 10.8557 0V2ZM11.2936 2.08711C11.4324 2.14461 11.5586 2.2289 11.6648 2.33516L13.0791 0.920947C12.7871 0.628971 12.4404 0.397363 12.059 0.239346L11.2936 2.08711ZM11.6648 2.33516C11.7711 2.44142 11.8554 2.56757 11.9129 2.7064L13.7607 1.94103C13.6026 1.55955 13.371 1.21292 13.0791 0.920947L11.6648 2.33516ZM11.9129 2.7064C11.9704 2.84523 12 2.99403 12 3.14431H14C14 2.7314 13.9187 2.32252 13.7607 1.94103L11.9129 2.7064ZM12 3.14431C12 3.29459 11.9704 3.44339 11.9129 3.58222L13.7607 4.34759C13.9187 3.9661 14 3.55722 14 3.14431H12ZM11.9129 3.58222C11.8554 3.72105 11.7711 3.8472 11.6648 3.95346L13.0791 5.36768C13.371 5.0757 13.6026 4.72907 13.7607 4.34759L11.9129 3.58222ZM11.6648 3.95346L4.46261 11.1557L5.87682 12.5699L13.0791 5.36767L11.6648 3.95346ZM4.9066 10.898L0.736884 12.0352L1.26312 13.9648L5.43283 12.8276L4.9066 10.898ZM1.96476 13.2631L3.10196 9.09342L1.17243 8.56718L0.0352364 12.7369L1.96476 13.2631ZM2.8443 9.53741L10.0465 2.33516L8.63232 0.920948L1.43009 8.12319L2.8443 9.53741ZM7 4L10 7L11.4142 5.58579L8.41421 2.58579L7 4Z" fill="#8E9CBB"/>
</svg>
    