<svg width="9" height="19" viewBox="0 0 8 16" fill="none" xmlns="http://www.w3.org/2000/svg">
    <path d="M4.69594 14.7086C4.30473 15.0991 3.67045 15.0991 3.27924 14.7086L0.293409 11.7296C-0.097803 11.339 -0.0978031 10.7059 0.293409 10.3153C0.684621 9.92482 1.3189 9.92482 1.71011 10.3153L4.69594 13.2944C5.08715 13.6849 5.08715 14.318 4.69594 14.7086Z" fill="#8E9CBB"/>
    <path d="M3.30385 14.7086C3.69506 15.0991 4.32934 15.0991 4.72055 14.7086L7.70659 11.7296C8.0978 11.339 8.0978 10.7059 7.70659 10.3153C7.31538 9.92482 6.6811 9.92482 6.28989 10.3153L3.30385 13.2944C2.91264 13.6849 2.91264 14.318 3.30385 14.7086Z" fill="#8E9CBB"/>
    <path d="M3.98759 14.0157C3.43433 14.0157 2.98583 13.5679 2.98583 13.0157V3C2.98583 2.44772 3.43433 2 3.98759 2C4.54085 2 4.98935 2.44772 4.98935 3V13.0157C4.98935 13.5679 4.54085 14.0157 3.98759 14.0157Z" fill="#8E9CBB"/>
    <path d="M4.69594 0.292893C4.30473 -0.0976311 3.67045 -0.0976311 3.27924 0.292893L0.293409 3.27191C-0.097803 3.66243 -0.0978031 4.2956 0.293409 4.68612C0.684621 5.07664 1.3189 5.07664 1.71011 4.68612L4.69594 1.70711C5.08715 1.31658 5.08715 0.683417 4.69594 0.292893Z" fill="#8E9CBB"/>
    <path d="M3.30385 0.292893C3.69506 -0.0976311 4.32934 -0.0976311 4.72055 0.292893L7.70659 3.27191C8.0978 3.66243 8.0978 4.2956 7.70659 4.68612C7.31538 5.07664 6.6811 5.07664 6.28989 4.68612L3.30385 1.70711C2.91264 1.31658 2.91264 0.683417 3.30385 0.292893Z" fill="#8E9CBB"/>
</svg>
    