<svg width="19" height="19" viewBox="0 0 14 15" fill="none" xmlns="http://www.w3.org/2000/svg">
    <path d="M6.99697 14.0083C6.44681 14.0083 6.00082 13.5595 6.00082 13.0059L5.99983 1.01071C5.99983 0.457096 6.44582 0.00830078 6.99599 0.00830078C7.54615 0.00830078 7.99215 0.457097 7.99215 1.01071L7.99313 13.0059C7.99313 13.5595 7.54714 14.0083 6.99697 14.0083Z" fill="#0066FF"/>
    <path d="M14 7.01688C14 6.46326 13.554 6.01447 13.0038 6.01447L0.996158 6.01448C0.445995 6.01448 0 6.46327 0 7.01689C0 7.57051 0.445995 8.0193 0.996159 8.0193L13.0038 8.0193C13.554 8.0193 14 7.5705 14 7.01688Z" fill="#0066FF"/>
</svg>
    